<svg width="23" height="23" viewBox="0 0 23 23" fill="none" xmlns="http://www.w3.org/2000/svg">
<path fill-rule="evenodd" clip-rule="evenodd" d="M19.751 0C21.2683 0 22.5 1.23179 22.5 2.74896V19.751C22.5 21.2682 21.2682 22.5 19.751 22.5H2.74896C1.23179 22.5 0 21.2682 0 19.751V2.74896C0 1.23179 1.23174 0 2.74896 0H19.751ZM11.25 3.33984C6.88311 3.33984 3.33984 6.88311 3.33984 11.25C3.33984 15.6169 6.88311 19.1602 11.25 19.1602C15.6083 19.1602 19.1602 15.6169 19.1602 11.25C19.1602 6.88311 15.6083 3.33984 11.25 3.33984ZM11.25 18.0105C9.68854 18.0105 8.2473 17.4786 7.10618 16.5864C7.22628 16.3375 8.599 13.6952 12.4082 12.3653C12.4253 12.3568 12.434 12.3568 12.4511 12.3481C13.4035 14.8104 13.7895 16.8781 13.8925 17.4701C13.0774 17.8218 12.1852 18.0105 11.25 18.0105ZM15.0163 16.8523C14.9477 16.4405 14.5875 14.4672 13.7037 12.0393C15.8229 11.7047 17.6759 12.2538 17.9075 12.331C17.6159 14.2098 16.535 15.8314 15.0163 16.8523ZM4.4895 11.2585V11.0527C4.78125 11.0613 8.05856 11.1041 11.4302 10.0918C11.6275 10.4693 11.8077 10.8553 11.9791 11.2415C11.8934 11.2672 11.7991 11.2929 11.7132 11.3186C8.23008 12.4425 6.37686 15.5139 6.22248 15.7713C5.15017 14.5788 4.4895 12.9916 4.4895 11.2585ZM16.4748 6.98612C17.4185 8.13577 17.9849 9.6028 18.0019 11.1899C17.7789 11.147 15.5482 10.6923 13.3005 10.9755C13.2491 10.864 13.206 10.7438 13.1546 10.6237C13.0173 10.2978 12.8629 9.96319 12.7085 9.64565C15.1966 8.63332 16.3289 7.17486 16.4748 6.98612ZM8.37593 5.14147C8.55611 5.38176 9.75718 7.05476 10.8811 9.04513C7.72396 9.88581 4.93563 9.86871 4.63535 9.86871C5.07278 7.77538 6.48839 6.03374 8.37593 5.14147ZM11.25 4.50659C12.9659 4.50659 14.5359 5.15017 15.7284 6.20539C15.6083 6.37686 14.5873 7.74105 12.1852 8.64185C11.0784 6.60863 9.85166 4.9442 9.66292 4.68677C10.169 4.56671 10.7009 4.50659 11.25 4.50659Z" fill="white"/>
</svg>
