<svg width="23" height="23" viewBox="0 0 23 23" fill="none" xmlns="http://www.w3.org/2000/svg">
<path fill-rule="evenodd" clip-rule="evenodd" d="M19.751 0C21.2683 0 22.5 1.23179 22.5 2.74896V19.751C22.5 21.2682 21.2682 22.5 19.751 22.5H15.0723V14.0223H17.999L18.5559 10.3915H15.0723V8.03527C15.0723 7.04197 15.5589 6.07373 17.1192 6.07373H18.7031V2.98261C18.7031 2.98261 17.2657 2.73731 15.8914 2.73731C13.0223 2.73731 11.1471 4.47618 11.1471 7.6242V10.3915H7.95784V14.0223H11.1471V22.5H2.74896C1.23179 22.5 0 21.2682 0 19.751V2.74896C0 1.23179 1.23174 0 2.74896 0L19.751 0Z" fill="white"/>
</svg>
