<svg width="23" height="23" viewBox="0 0 23 23" fill="none" xmlns="http://www.w3.org/2000/svg">
<path fill-rule="evenodd" clip-rule="evenodd" d="M19.751 0C21.2683 0 22.5 1.23179 22.5 2.74896V19.751C22.5 21.2682 21.2682 22.5 19.751 22.5H2.74896C1.23179 22.5 0 21.2682 0 19.751V2.74896C0 1.23179 1.23174 0 2.74896 0H19.751ZM7.05151 18.6011V8.68188H3.75385V18.6011H7.05151ZM18.9404 18.6011V12.9128C18.9404 9.86599 17.3137 8.44862 15.1444 8.44862C13.3952 8.44862 12.6116 9.41062 12.1729 10.0863V8.68188H8.87612C8.91984 9.61269 8.87612 18.6011 8.87612 18.6011H12.1729V13.0615C12.1729 12.765 12.1943 12.4686 12.2816 12.2567C12.5195 11.6645 13.0624 11.0511 13.9732 11.0511C15.1657 11.0511 15.6435 11.961 15.6435 13.2939V18.6011H18.9404ZM5.42496 3.89892C4.29671 3.89892 3.55957 4.64067 3.55957 5.61287C3.55957 6.56464 4.2743 7.32683 5.38132 7.32683H5.40259C6.55242 7.32683 7.26816 6.56464 7.26816 5.61287C7.24685 4.64203 6.55444 3.90103 5.42496 3.89892Z" fill="white"/>
</svg>
