<svg width="23" height="23" viewBox="0 0 23 23" fill="none" xmlns="http://www.w3.org/2000/svg">
<path fill-rule="evenodd" clip-rule="evenodd" d="M19.751 0C21.2683 0 22.5 1.23179 22.5 2.74896V19.751C22.5 21.2682 21.2682 22.5 19.751 22.5H2.74896C1.23179 22.5 0 21.2682 0 19.751V2.74896C0 1.23179 1.23174 0 2.74896 0H19.751ZM18.894 6.03461H14.5217L11.4048 13.8097L7.85966 6.03461H3.27309V6.30044L4.75027 8.07992C4.89533 8.21061 4.96934 8.40261 4.94965 8.5968V15.5891C4.99263 15.8413 4.91317 16.099 4.73555 16.2832L3.07371 18.2989V18.5647H7.78583V18.2989L6.124 16.2832C5.94501 16.0994 5.86059 15.8434 5.89504 15.5891V9.54193L10.0311 18.5647H10.5112L14.0637 9.54193V16.7336C14.0637 16.9255 14.0637 16.9625 13.9381 17.088L12.6604 18.3285V18.5943H18.8644V18.3285L17.631 17.1175C17.5221 17.0346 17.4681 16.8981 17.4907 16.7631V7.86582C17.4681 7.73077 17.5221 7.59432 17.631 7.51135L18.894 6.30044V6.03461Z" fill="white"/>
</svg>
