<svg width="23" height="23" viewBox="0 0 23 23" fill="none" xmlns="http://www.w3.org/2000/svg">
<path fill-rule="evenodd" clip-rule="evenodd" d="M19.751 0C21.2683 0 22.5 1.23179 22.5 2.74896V19.751C22.5 21.2682 21.2682 22.5 19.751 22.5H2.74896C1.23179 22.5 0 21.2682 0 19.751V2.74896C0 1.23179 1.23174 0 2.74896 0H19.751ZM8.59214 18.6567C14.566 18.6567 17.8324 13.7066 17.8324 9.41643C17.8324 9.27501 17.8324 9.13355 17.8257 8.99886C18.4588 8.5409 19.011 7.96843 19.4488 7.31514C18.8696 7.57107 18.2433 7.7462 17.5833 7.82701C18.2568 7.42289 18.7686 6.78981 19.011 6.02877C18.3847 6.39918 17.691 6.66861 16.9502 6.81675C16.3575 6.18368 15.5156 5.79305 14.5795 5.79305C12.788 5.79305 11.3333 7.24781 11.3333 9.03929C11.3333 9.29522 11.3602 9.54439 11.4208 9.78012C8.72011 9.64542 6.32922 8.35233 4.72632 6.38574C4.45017 6.86391 4.28854 7.42289 4.28854 8.01558C4.28854 9.14032 4.86101 10.1371 5.73653 10.7163C5.20449 10.7028 4.7061 10.5547 4.26832 10.3122V10.3526C4.26832 11.9286 5.38633 13.2351 6.87476 13.5382C6.60538 13.6123 6.31578 13.6527 6.01941 13.6527C5.81063 13.6527 5.60861 13.6325 5.40655 13.5921C5.81739 14.8852 7.01618 15.8213 8.43724 15.8483C7.32599 16.7171 5.92515 17.2357 4.40306 17.2357C4.1404 17.2357 3.88446 17.2222 3.62852 17.1885C5.04958 18.118 6.76024 18.6567 8.59214 18.6567Z" fill="white"/>
</svg>
