<svg width="49" height="49" viewBox="0 0 49 49" fill="none" xmlns="http://www.w3.org/2000/svg">
<g clip-path="url(#clip0_8_240)">
<rect x="24" y="22" width="25" height="27.127" fill="#FFB7A0"/>
<path d="M34.2761 15.0158C35.1853 14.1114 35.1853 12.6376 34.2761 11.7332L30.9313 8.38837L30.936 8.39316C30.0508 7.5079 28.5291 5.98622 26.3758 3.83769C25.3613 2.84716 23.72 2.85673 22.7151 3.86161L3.8712 22.6912C3.6301 22.9307 3.43876 23.2154 3.30819 23.5292C3.17762 23.8429 3.1104 24.1793 3.1104 24.5191C3.1104 24.8589 3.17762 25.1954 3.30819 25.5091C3.43876 25.8228 3.6301 26.1076 3.8712 26.3471L22.7104 45.1719C23.1961 45.6568 23.8544 45.9291 24.5407 45.9291C25.227 45.9291 25.8853 45.6568 26.371 45.1719L34.2713 37.2764C35.1805 36.372 35.1805 34.8981 34.2713 33.9937C33.8346 33.5592 33.2436 33.3153 32.6276 33.3153C32.0116 33.3153 31.4206 33.5592 30.9839 33.9937L25.0024 39.9848C24.7536 40.2336 24.366 40.2336 24.1172 39.9848L9.06788 24.9498C8.81905 24.701 8.81905 24.3134 9.06788 24.0645L24.1124 9.02958C24.1315 9.01044 24.1555 8.99609 24.1746 8.97695C24.4234 8.78075 24.768 8.79989 24.9977 9.02958L30.9887 15.0158C31.8979 15.925 33.3717 15.925 34.2761 15.0158ZM19.5522 24.6148C19.5522 25.9626 20.0881 27.2552 21.042 28.2082C21.9959 29.1613 23.2897 29.6967 24.6388 29.6967C25.9878 29.6967 27.2816 29.1613 28.2356 28.2082C29.1895 27.2552 29.7254 25.9626 29.7254 24.6148C29.7254 23.267 29.1895 21.9745 28.2356 21.0214C27.2816 20.0684 25.9878 19.533 24.6388 19.533C23.2897 19.533 21.9959 20.0684 21.042 21.0214C20.0881 21.9745 19.5522 23.267 19.5522 24.6148ZM45.2102 22.7678L39.3292 16.9155C38.42 16.0111 36.9462 16.0111 36.0418 16.9203C35.8256 17.1355 35.6541 17.3913 35.5371 17.6729C35.4201 17.9546 35.3598 18.2566 35.3598 18.5616C35.3598 18.8666 35.4201 19.1686 35.5371 19.4503C35.6541 19.732 35.8256 19.9877 36.0418 20.2029L40.0135 24.1698C40.2623 24.4186 40.2623 24.8062 40.0135 25.0551L36.0992 28.9645C35.8831 29.1797 35.7115 29.4355 35.5945 29.7172C35.4775 29.9988 35.4172 30.3008 35.4172 30.6059C35.4172 30.9109 35.4775 31.2129 35.5945 31.4945C35.7115 31.7762 35.8831 32.032 36.0992 32.2472C36.5359 32.6817 37.1269 32.9256 37.7429 32.9256C38.359 32.9256 38.9499 32.6817 39.3866 32.2472L45.2149 26.4236C45.4552 26.1836 45.6457 25.8984 45.7756 25.5846C45.9054 25.2707 45.972 24.9343 45.9716 24.5947C45.9711 24.2551 45.9036 23.9188 45.773 23.6053C45.6423 23.2918 45.451 23.0072 45.2102 22.7678Z" fill="#3C2C40"/>
<circle cx="24.5" cy="24.5" r="5.5" fill="#3C2C40"/>
</g>
<defs>
<clipPath id="clip0_8_240">
<rect width="49" height="49" fill="white"/>
</clipPath>
</defs>
</svg>
