<svg width="15" height="15" viewBox="0 0 15 15" fill="none" xmlns="http://www.w3.org/2000/svg">
<path d="M12.9265 2.16863C12.922 2.14699 12.9115 2.12709 12.8961 2.11125C12.8806 2.09542 12.861 2.08431 12.8395 2.07925C11.4057 1.72856 8.09343 2.97811 6.29703 4.77318C5.97687 5.09071 5.68494 5.43549 5.42454 5.80361C4.87083 5.75352 4.31712 5.7957 3.84567 6.00137C2.5144 6.58672 2.12706 8.11549 2.01896 8.77177C2.0131 8.80773 2.0156 8.84455 2.02627 8.87939C2.03693 8.91423 2.05548 8.94614 2.08047 8.97266C2.10545 8.99918 2.13621 9.01958 2.17035 9.0323C2.2045 9.04502 2.24111 9.0497 2.27735 9.04599L4.41494 8.81132C4.41642 8.97255 4.4261 9.13359 4.44395 9.29384C4.4551 9.4046 4.50452 9.508 4.58369 9.58625L5.41136 10.4139C5.48968 10.4931 5.59318 10.5426 5.70403 10.5537C5.86331 10.5714 6.02339 10.5811 6.18365 10.5827L5.94925 12.7184C5.94559 12.7546 5.9503 12.7912 5.96302 12.8252C5.97574 12.8593 5.99613 12.89 6.02261 12.915C6.04909 12.9399 6.08095 12.9585 6.11573 12.9691C6.15052 12.9798 6.18729 12.9823 6.2232 12.9765C6.87975 12.8711 8.41168 12.4837 8.9936 11.1527C9.19927 10.6808 9.24146 10.1299 9.19399 9.57887C9.5632 9.31871 9.90896 9.02676 10.2273 8.70638C12.0303 6.91341 13.2719 3.67394 12.9265 2.16863ZM8.62473 6.38369C8.46724 6.22624 8.35999 6.02563 8.31653 5.80723C8.27306 5.58882 8.29534 5.36243 8.38055 5.15669C8.46576 4.95095 8.61006 4.77509 8.79522 4.65137C8.98038 4.52764 9.19806 4.46161 9.42075 4.46161C9.64344 4.46161 9.86113 4.52764 10.0463 4.65137C10.2314 4.77509 10.3757 4.95095 10.461 5.15669C10.5462 5.36243 10.5684 5.58882 10.525 5.80723C10.4815 6.02563 10.3743 6.22624 10.2168 6.38369C10.1123 6.48837 9.98825 6.57142 9.85165 6.62808C9.71506 6.68474 9.56863 6.71391 9.42075 6.71391C9.27287 6.71391 9.12645 6.68474 8.98985 6.62808C8.85326 6.57142 8.72918 6.48837 8.62473 6.38369V6.38369Z" stroke="#191B1D" stroke-linecap="round" stroke-linejoin="round"/>
<path d="M3.6409 10.0311C3.37805 10.0634 3.13351 10.1826 2.94612 10.3697C2.48153 10.8359 2.4375 12.5624 2.4375 12.5624C2.4375 12.5624 4.16508 12.5183 4.62993 12.0532C4.81782 11.8661 4.93718 11.6212 4.96875 11.3579" stroke="#191B1D" stroke-linecap="round" stroke-linejoin="round"/>
</svg>
