<svg width="49" height="49" viewBox="0 0 49 49" fill="none" xmlns="http://www.w3.org/2000/svg">
<g clip-path="url(#clip0_8_242)">
<rect x="23" y="22" width="25" height="27.127" fill="#FFB7A0"/>
<path d="M24.4904 11.5705L25.3613 10.068C25.8973 9.13008 27.0936 8.81426 28.0314 9.35019C28.9693 9.88613 29.2852 11.0824 28.7492 12.0203L20.3752 26.5193H26.4332C28.3951 26.5193 29.4957 28.8258 28.6439 30.424H10.891C9.80957 30.424 8.93867 29.5531 8.93867 28.4717C8.93867 27.3902 9.80957 26.5193 10.891 26.5193H15.8676L22.2414 15.4752L20.2508 12.0203C19.7148 11.0824 20.0307 9.8957 20.9686 9.35019C21.9064 8.81426 23.0932 9.13008 23.6387 10.068L24.4904 11.5705ZM16.9586 32.4338L15.0828 35.6877C14.5469 36.6256 13.3506 36.9414 12.4127 36.4055C11.4748 35.8695 11.159 34.6732 11.6949 33.7354L13.0922 31.3236C14.6617 30.8355 15.9441 31.2088 16.9586 32.4338ZM33.1229 26.5289H38.2047C39.2861 26.5289 40.157 27.3998 40.157 28.4813C40.157 29.5627 39.2861 30.4336 38.2047 30.4336H35.3814L37.2859 33.7354C37.8219 34.6732 37.5061 35.86 36.5682 36.4055C35.6303 36.9414 34.4436 36.6256 33.898 35.6877C30.692 30.1273 28.2803 25.9643 26.682 23.1889C25.0455 20.3656 26.2131 17.5328 27.3711 16.5758C28.6535 18.777 30.5676 22.0979 33.1229 26.5289ZM24.5 0.765625C11.3887 0.765625 0.765625 11.3887 0.765625 24.5C0.765625 37.6113 11.3887 48.2344 24.5 48.2344C37.6113 48.2344 48.2344 37.6113 48.2344 24.5C48.2344 11.3887 37.6113 0.765625 24.5 0.765625ZM45.1719 24.5C45.1719 35.86 35.9748 45.1719 24.5 45.1719C13.14 45.1719 3.82812 35.9748 3.82812 24.5C3.82812 13.14 13.0252 3.82812 24.5 3.82812C35.86 3.82812 45.1719 13.0252 45.1719 24.5Z" fill="#3C2C40"/>
<path d="M33 30.4427L33 25.9999L38.7705 25.9999C39.9973 25.9999 40.9919 26.9945 40.9919 28.2213C40.9919 29.4482 39.9973 30.4427 38.7705 30.4427L33 30.4427Z" fill="#FF8059"/>
<path d="M26.5 26C27.8807 26 29 27.1193 29 28.5L29 31L11.5 31C10.1193 31 9 29.8807 9 28.5C9 27.1193 10.1193 26 11.5 26L26.5 26Z" fill="#FF8059"/>
<path d="M12.1117 31.8709C12.7409 30.8178 14.1048 30.4741 15.158 31.1034L17.0649 32.2427L14.9533 35.777C14.324 36.8302 12.9601 37.1739 11.9069 36.5446C10.8538 35.9154 10.5101 34.5515 11.1394 33.4983L12.1117 31.8709Z" fill="#FF8059"/>
<rect x="26.8435" y="14.9211" width="4.44281" height="7.9919" rx="2.2214" transform="rotate(150 26.8435 14.9211)" fill="#FF8059"/>
<path d="M25.5694 21.8471C25.1189 21.0873 25.1097 20.1444 25.5454 19.376L27.3032 16.2753L37.7812 32.915C38.4964 34.0509 38.1555 35.5514 37.0196 36.2667C35.8622 36.9955 34.3316 36.626 33.6341 35.4495L25.5694 21.8471Z" fill="#FF8059"/>
<rect x="26.2098" y="8" width="4.44281" height="22.6051" rx="2.2214" transform="rotate(30.8575 26.2098 8)" fill="#FF8059"/>
</g>
<defs>
<clipPath id="clip0_8_242">
<rect width="49" height="49" fill="white"/>
</clipPath>
</defs>
</svg>
