<svg width="48" height="48" viewBox="0 0 48 48" fill="none" xmlns="http://www.w3.org/2000/svg">
<g clip-path="url(#clip0_8_244)">
<rect x="23" y="21" width="25" height="27.127" fill="#FFB7A0"/>
<path d="M42.75 6.30005C42.2343 5.9664 41.6444 5.76454 41.0324 5.71223C40.4204 5.65992 39.8049 5.75876 39.24 6.00005L20.73 13.29C20.2918 13.4684 19.8231 13.5601 19.35 13.5601H7.5C6.50544 13.5601 5.55161 13.9551 4.84835 14.6584C4.14509 15.3617 3.75 16.3155 3.75 17.3101V17.6101H0V26.6101H3.75V27C3.7735 27.9789 4.17894 28.9098 4.87967 29.5937C5.5804 30.2776 6.52084 30.6603 7.5 30.6601L12 40.2001C12.3047 40.8425 12.7844 41.3859 13.3841 41.768C13.9837 42.1501 14.679 42.3553 15.39 42.3601H17.28C18.2694 42.3521 19.2155 41.9536 19.9123 41.2512C20.6091 40.5487 21 39.5994 21 38.6101V31.0201L39.24 38.3101C39.6886 38.4886 40.1671 38.5802 40.65 38.5801C41.3991 38.568 42.1286 38.3387 42.75 37.9201C43.2434 37.5869 43.6504 37.141 43.9374 36.6194C44.2243 36.0977 44.3829 35.5152 44.4 34.9201V9.39005C44.3973 8.7796 44.2455 8.17905 43.958 7.64055C43.6704 7.10206 43.2558 6.6419 42.75 6.30005ZM17.25 17.3101V27H7.5V17.3101H17.25ZM17.25 38.6101H15.36L11.67 30.6601H17.25V38.6101ZM22.11 27.45C21.7538 27.268 21.3824 27.1174 21 27V17.1C21.3787 17.0219 21.7501 16.9115 22.11 16.7701L40.65 9.39005V34.8301L22.11 27.45ZM44.49 18.3601V25.8601C45.4846 25.8601 46.4384 25.465 47.1417 24.7617C47.8449 24.0584 48.24 23.1046 48.24 22.1101C48.24 21.1155 47.8449 20.1617 47.1417 19.4584C46.4384 18.7551 45.4846 18.3601 44.49 18.3601Z" fill="#3C2C40"/>
</g>
<defs>
<clipPath id="clip0_8_244">
<rect width="48" height="48" fill="white"/>
</clipPath>
</defs>
</svg>
