<svg width="60" height="44" viewBox="0 0 60 44" fill="none" xmlns="http://www.w3.org/2000/svg">
<path d="M46.3629 23.9529L46.3627 23.9529C44.2843 23.953 42.2512 23.3748 40.4992 22.2891C38.7475 21.2036 37.3506 19.657 36.4643 17.8329C35.5781 16.0093 35.2367 13.9795 35.4767 11.977C35.7167 9.97444 36.5292 8.07487 37.8258 6.49903C39.1227 4.92276 40.8519 3.73415 42.8168 3.07672C44.782 2.4192 46.898 2.32157 48.9183 2.79587C50.9385 3.27013 52.7751 4.29547 54.2182 5.74739L55.9914 3.98505L54.2182 5.7474C55.6609 7.19892 56.6513 9.01725 57.081 10.9899C57.1146 11.1441 57.1625 11.2936 57.2234 11.4367C57.2779 11.81 57.3383 12.2584 57.3717 12.7047C57.3732 12.7245 57.3749 12.7444 57.3769 12.7643C57.4888 13.8957 57.5477 15.5225 57.452 17.5201C57.3369 19.4863 57.0419 21.7608 56.3932 24.1389C56.0478 25.3313 55.6325 26.5364 55.1272 27.7003C55.0681 27.8228 55.0105 27.9428 54.954 28.0604C54.3789 29.2578 53.9213 30.2105 53.2819 31.0855C53.2378 31.1457 53.1965 31.2079 53.158 31.2719C52.5459 32.2895 51.7257 33.234 50.7581 34.2656C50.714 34.3125 50.6718 34.3611 50.6315 34.4113C50.3447 34.7688 49.9731 35.1111 49.4764 35.5146C49.3442 35.6219 49.1779 35.7528 48.9951 35.8965C48.6248 36.1877 48.1871 36.5319 47.8304 36.8408C47.4688 37.1339 47.0543 37.3973 46.5527 37.6868C46.4151 37.7662 46.2527 37.8574 46.0776 37.9558C45.6889 38.1741 45.2377 38.4276 44.8559 38.6653C44.8397 38.6754 44.8235 38.6857 44.8075 38.6962C44.5018 38.8965 44.1498 39.0618 43.6935 39.2424C43.5843 39.2856 43.438 39.3407 43.2728 39.403C42.9283 39.533 42.5016 39.6939 42.1581 39.8417C41.8034 39.9775 41.5141 40.0931 41.2696 40.1908C40.6959 40.42 40.3684 40.5508 40.0185 40.6142C39.9659 40.6238 39.9136 40.635 39.8617 40.6479C39.3891 40.7653 39.0054 40.858 38.6436 40.9454C38.5727 40.9625 38.5025 40.9794 38.4328 40.9963L38.1274 39.7975L39.06 39.4201C39.5912 39.2392 40.0475 38.9953 40.3946 38.7963C40.5623 38.7002 40.7299 38.5994 40.8745 38.5126C40.8909 38.5027 40.9071 38.4929 40.9229 38.4834C41.0869 38.385 41.2283 38.3007 41.3685 38.2217C41.4171 38.1943 41.4647 38.1653 41.5114 38.1348C41.6557 38.0402 41.7714 37.978 41.9546 37.8794C42.0777 37.8132 42.2312 37.7306 42.4443 37.6108C42.8643 37.3747 43.4396 37.0281 43.9814 36.5121C44.1361 36.3732 44.2904 36.255 44.5189 36.0801C44.6183 36.004 44.7317 35.9172 44.8653 35.8132C45.2559 35.5093 45.7811 35.0834 46.2562 34.5213C46.2758 34.4981 46.295 34.4746 46.3137 34.4507C46.4439 34.2848 46.5647 34.1595 46.7583 33.9586C46.8559 33.8573 46.9721 33.7368 47.1174 33.5821C47.4557 33.2219 47.9154 32.7066 48.2885 32.0328C48.2925 32.0269 48.2964 32.021 48.3004 32.0151C48.7671 31.3196 49.3886 30.3935 49.8243 29.3031C50.2457 28.4881 50.501 27.6439 50.6834 27.0407C50.689 27.0223 50.6945 27.004 50.6999 26.9861C50.9474 26.1686 50.7603 25.2813 50.2039 24.6333C49.6475 23.9852 48.7987 23.6661 47.9532 23.787C47.9238 23.7912 47.8949 23.7954 47.8664 23.7995C47.2206 23.8919 46.7948 23.9529 46.3629 23.9529ZM13.4608 23.9529L13.4607 23.9529C11.3822 23.953 9.34916 23.3748 7.59711 22.2891C5.84546 21.2036 4.44853 19.657 3.5622 17.8329C2.67607 16.0093 2.33464 13.9795 2.57462 11.977C2.81461 9.97444 3.62709 8.07486 4.9237 6.49902C6.22065 4.92276 7.94986 3.73415 9.91475 3.07672C11.8799 2.41919 13.9959 2.32157 16.0162 2.79587C18.0364 3.27013 19.8731 4.29547 21.3161 5.74739C22.7588 7.19892 23.7492 9.01724 24.179 10.9899C24.2126 11.1441 24.2604 11.2936 24.3213 11.4367C24.3758 11.81 24.4362 12.2584 24.4696 12.7046C24.4711 12.7245 24.4728 12.7444 24.4748 12.7643C24.5867 13.8957 24.6456 15.5225 24.5499 17.52C24.4348 19.4862 24.1399 21.7606 23.4912 24.1388C23.1458 25.3311 22.7305 26.5364 22.2251 27.7003C22.1661 27.8228 22.1084 27.9428 22.0519 28.0604C21.4768 29.2578 21.0193 30.2105 20.3798 31.0855C20.3358 31.1457 20.2945 31.2079 20.256 31.2719C19.6438 32.2895 18.8236 33.234 17.856 34.2656C17.8127 34.3117 17.7712 34.3595 17.7315 34.4088C17.4444 34.7656 17.0724 35.1078 16.5751 35.5114C16.443 35.6186 16.2775 35.7486 16.0959 35.8914C15.725 36.183 15.2867 36.5275 14.9283 36.8379C14.5667 37.1309 14.1522 37.3943 13.6506 37.6839C13.513 37.7633 13.3506 37.8545 13.1755 37.9528C12.7869 38.1711 12.3356 38.4246 11.9539 38.6623C11.9362 38.6733 11.9186 38.6846 11.9012 38.696C11.5983 38.8954 11.2483 39.0598 10.7909 39.2407C10.6837 39.283 10.5428 39.3362 10.3839 39.3961C10.0373 39.5269 9.60527 39.6899 9.25205 39.8432C8.89912 39.9784 8.61113 40.0935 8.36752 40.1908C7.79389 40.4199 7.46633 40.5508 7.11641 40.6142C7.0638 40.6238 7.01151 40.635 6.95961 40.6479C6.48701 40.7653 6.10331 40.858 5.74162 40.9453C5.67063 40.9625 5.60049 40.9794 5.53069 40.9963L5.22538 39.7975L6.15795 39.4201C6.68911 39.2392 7.14539 38.9953 7.49257 38.7963C7.66021 38.7002 7.82789 38.5994 7.97245 38.5125L8.02087 38.4834C8.18483 38.385 8.32624 38.3007 8.46639 38.2217C8.51499 38.1943 8.56266 38.1653 8.60932 38.1348C8.75362 38.0402 8.86933 37.978 9.05257 37.8794C9.17563 37.8132 9.32915 37.7306 9.54223 37.6108C9.96223 37.3747 10.5376 37.0281 11.0793 36.5121C11.234 36.3732 11.3884 36.255 11.6168 36.0801C11.7162 36.004 11.8296 35.9172 11.9632 35.8132C12.3538 35.5093 12.879 35.0834 13.3542 34.5212C13.3737 34.4981 13.3929 34.4746 13.4116 34.4507C13.5418 34.2848 13.6626 34.1595 13.8562 33.9586C13.9539 33.8573 14.0701 33.7368 14.2153 33.5821C14.5536 33.2219 15.0133 32.7066 15.3864 32.0328C15.3904 32.0269 15.3943 32.021 15.3983 32.0151C15.865 31.3196 16.4865 30.3935 16.9222 29.3031C17.3437 28.4881 17.5989 27.6439 17.7813 27.0407L17.7979 26.9861C18.0453 26.1686 17.8582 25.2813 17.3018 24.6333C16.7454 23.9852 15.8967 23.6661 15.0511 23.787L14.9644 23.7995C14.3185 23.8919 13.8927 23.9529 13.4608 23.9529Z" stroke="#FF8059" stroke-width="5" stroke-linejoin="round"/>
</svg>
