<svg width="49" height="49" viewBox="0 0 49 49" fill="none" xmlns="http://www.w3.org/2000/svg">
<g clip-path="url(#clip0_8_234)">
<rect x="24" y="23" width="25" height="27.127" fill="#FFB7A0"/>
<path d="M44.9167 16.3313C44.9163 15.9669 44.8184 15.6093 44.6331 15.2955C44.4479 14.9817 44.182 14.7232 43.8632 14.5469L25.4433 4.33855C25.1406 4.1718 24.8006 4.08435 24.4551 4.08435C24.1095 4.08435 23.7696 4.1718 23.4669 4.33855L5.13683 14.4652C4.8184 14.6415 4.5529 14.8998 4.36782 15.2132C4.18275 15.5266 4.08483 15.8838 4.0842 16.2478C4.08358 16.6118 4.18027 16.9694 4.36427 17.2834C4.54827 17.5975 4.81289 17.8566 5.13071 18.034L23.5506 28.324C23.8539 28.4944 24.1958 28.5841 24.5436 28.5845C24.8915 28.5848 25.2336 28.4959 25.5372 28.3261L43.8673 18.1178C44.1857 17.9407 44.4509 17.6817 44.6354 17.3675C44.8199 17.0534 44.917 16.6956 44.9167 16.3313ZM24.547 24.2019L10.3308 16.2619L24.453 8.45863L38.6712 16.3374L24.547 24.2019Z" fill="#3C2C40"/>
<path d="M41.8848 22.7156L24.5 32.3727L7.11521 22.7156L5.13275 26.2844L23.5078 36.4927C23.811 36.6611 24.1521 36.7495 24.499 36.7495C24.8458 36.7495 25.187 36.6611 25.4902 36.4927L43.8652 26.2844L41.8848 22.7156Z" fill="#3C2C40"/>
<path d="M41.8848 30.8822L24.5 40.5393L7.11521 30.8822L5.13275 34.451L23.5078 44.6594C23.811 44.8278 24.1521 44.9161 24.499 44.9161C24.8458 44.9161 25.187 44.8278 25.4902 44.6594L43.8652 34.451L41.8848 30.8822Z" fill="#3C2C40"/>
</g>
<defs>
<clipPath id="clip0_8_234">
<rect width="49" height="49" fill="white"/>
</clipPath>
</defs>
</svg>
